<?xml version="1.0" encoding="UTF-8"?>
<svg id="Camada_1" data-name="Camada 1" xmlns="http://www.w3.org/2000/svg" viewBox="0 0 786.28 1017.25">
  <path d="M393.15,936.87c-93.75,0-146.42-15.49-169.06-30.67h-24.53c7.67,11.15,22.62,20.59,53.61,28.16,37.46,9.15,87.16,14.19,139.97,14.19s102.51-5.04,139.95-14.19c30.99-7.57,52.48-17.01,60.14-28.16h-23.86c-22.64,15.18-82.48,30.67-176.23,30.67Z"/>
  <path d="M578.91,287.87c8.74-1.82,17.01-3.77,24.74-5.88l-179.35,287.89h-59.98l-175.21-297.27c5.28,2.05,11,4.04,17.11,5.93,48.42,15.02,122.11,24.61,204.65,24.61,29.81,0,58.48-1.26,85.21-3.56l-129.24,197.96c1.08,2.88,79.26-104.66,148.11-199.82,23.24-2.49,44.75-5.86,63.96-9.88Z"/>
  <path d="M703.48,172.5c-16.41-4.39-39.51-8.33-68.68-11.73,22.64-2.86,40.13-22.29,40.13-45.85,0-25.5-20.55-46.22-45.91-46.22s-45.91,20.72-45.91,46.22c0,12.39,4.83,23.6,12.7,31.9l-6.21,9.53c-56.85-4.66-124.95-7.17-196.46-7.17-89.75,0-174.15,3.96-237.67,11.13-31.06,3.5-55.5,7.62-72.66,12.2-21.48,5.74-30.66,11.83-30.66,20.37,0,2.94,1.08,5.59,3.38,8.04l.02.02,333.16,455.2-188.61,245.63h24.7l170.65-236.41,173.03,236.41h24.69l-189.87-247.26,327.42-453.59.06-.08c2.26-2.42,3.32-5.05,3.32-7.96,0-8.54-9.16-14.63-30.64-20.37ZM597.63,90.21c7.83-7.85,18.98-12.29,31.16-11.06,17.75,1.8,32.17,16.08,34.23,33.91,1.37,11.85-2.59,22.81-9.76,30.74-2.75,3.04-7.77.5-6.86-3.52.7-3.02,1.02-6.21.91-9.45-.62-18.58-15.48-34-33.91-35.1-4.19-.27-8.25.19-12.06,1.26-3.94,1.12-6.63-3.87-3.71-6.77ZM64.01,192.88c1.35-1.53,7.79-6.65,36.48-12.53,14.42-2.96,34.49-6.11,62.38-9.1,62.36-6.71,144.15-10.4,230.29-10.4,68.31,0,133.88,2.34,189.19,6.63l-34.72,53.18c-47.21,2.78-99.96,4.25-154.47,4.25-86.14,0-167.93-3.69-230.29-10.38-17.78-1.91-32.38-3.9-44.36-5.84-44.19-7.17-52.89-13.98-54.49-15.81ZM400.16,641.25l-3.52,4.58-3.5-4.58L126.81,221.78c8.81,1.29,18.38,2.51,28.67,3.67,63.52,7.19,147.92,11.13,237.67,11.13,51.59,0,101.43-1.29,146.55-3.77l-38.16,54.96c7.44-.83,12-1.06,19.06-2.09,8.72-12.04,34.52-43.46,42.37-54.28,24.45-1.62,47.24-3.61,67.83-5.95,16.64-1.86,31.37-3.92,44.13-6.13l-274.77,421.93ZM683.73,205.83c-14.27,2.84-33.73,5.84-60.31,8.7-15.97,1.7-33.25,3.23-51.54,4.54,15.17-20.97,27.74-38.26,35.92-49.41,5.34.5,10.55,1.04,15.62,1.59,37.19,3.98,60.47,8.27,75.02,11.98,18.07,4.6,22.71,8.37,23.83,9.65-1.37,1.58-8.08,6.92-38.55,12.95Z"/>
  <path d="M603.66,281.99l-179.35,287.89h-59.98l-175.21-297.27c5.28,2.05,11,4.04,17.11,5.93,48.42,15.02,122.11,24.61,204.65,24.61,29.81,0,58.48-1.26,85.21-3.56l-129.24,197.96c1.08,2.88,79.26-104.66,148.11-199.82,23.24-2.49,44.75-5.86,63.96-9.88,8.74-1.82,17.01-3.77,24.74-5.88Z"/>
  <path d="M603.66,281.99l-179.35,287.89h-59.98l-175.21-297.27c5.28,2.05,11,4.04,17.11,5.93,48.42,15.02,122.11,24.61,204.65,24.61,29.81,0,58.48-1.26,85.21-3.56l-129.24,197.96c1.08,2.88,79.26-104.66,148.11-199.82,23.24-2.49,44.75-5.86,63.96-9.88,8.74-1.82,17.01-3.77,24.74-5.88Z"/>
</svg>