<?xml version="1.0" encoding="UTF-8"?>
<svg id="Camada_1" data-name="Camada 1" xmlns="http://www.w3.org/2000/svg" viewBox="0 0 2245.87 738.45">
  <path d="M1065.56,561.65c0-14.04,10.75-24.19,25.2-24.19,7.66,0,14.24,2.75,18.61,7.86l-5.64,5.31c-3.43-3.7-7.66-5.51-12.56-5.51-9.74,0-16.8,6.85-16.8,16.53s7.06,16.53,16.8,16.53c4.91,0,9.14-1.81,12.56-5.58l5.64,5.38c-4.37,5.11-10.95,7.86-18.68,7.86-14.38,0-25.13-10.15-25.13-24.19ZM1150.63,561.65c0-13.91,10.75-24.19,25.33-24.19s25.33,10.21,25.33,24.19-10.75,24.19-25.33,24.19-25.33-10.28-25.33-24.19ZM1192.49,561.65c0-9.61-7.06-16.53-16.53-16.53s-16.53,6.92-16.53,16.53,7.06,16.53,16.53,16.53,16.53-6.92,16.53-16.53ZM1297.44,589.87c-3.09,3.63-7.32,5.58-12.3,5.58-6.38,0-11.15-2.49-18.07-9.74-13.17-1.14-22.64-11.02-22.64-24.05,0-13.91,10.75-24.19,25.33-24.19s25.33,10.21,25.33,24.19c0,11.35-7.12,20.22-17.6,23.18,2.69,2.89,5.11,3.96,7.86,3.96,3.09,0,5.78-1.28,8.06-3.76l4.03,4.84ZM1269.76,578.18c9.47,0,16.53-6.92,16.53-16.53s-7.06-16.53-16.53-16.53-16.53,6.92-16.53,16.53,7.06,16.53,16.53,16.53ZM1341.19,564.68v-26.54h8.73v26.2c0,9.68,4.37,13.84,11.96,13.84s11.89-4.17,11.89-13.84v-26.2h8.6v26.54c0,13.71-7.73,21.16-20.56,21.16s-20.63-7.46-20.63-21.16ZM1467.11,577.84v7.32h-35.27v-47.03h34.33v7.32h-25.6v12.23h22.71v7.19h-22.71v12.97h26.54ZM1523.63,545.53h-15.59v-7.39h39.91v7.39h-15.59v39.64h-8.73v-39.64ZM1627.04,577.84v7.32h-35.27v-47.03h34.33v7.32h-25.6v12.23h22.71v7.19h-22.71v12.97h26.54ZM1674.02,538.14h8.73v39.64h24.59v7.39h-33.33v-47.03ZM1782.33,574.28l-5.69,3.5c-3.7,2.28-8.38,2.29-12.09.02l-5.74-3.52-4.64,10.89h-9l21.16-47.03h8.6l21.23,47.03h-9.14l-4.7-10.89ZM1779.44,567.43l-8.87-20.56-8.8,20.56,1.57,1.27c4.27,3.46,10.38,3.44,14.62-.05l1.48-1.22ZM1870.16,585.17l-9.61-13.77c-.61.07-1.21.07-1.81.07h-10.62v13.71h-8.73v-47.03h19.35c12.36,0,20.02,6.32,20.02,16.73,0,7.12-3.63,12.36-10.01,14.85l10.82,15.45h-9.41ZM1858.33,545.53h-10.21v18.75h10.21c7.66,0,11.62-3.49,11.62-9.41s-3.96-9.34-11.62-9.34ZM1925.73,538.14h8.73v47.03h-8.73v-47.03ZM2014.9,574.28l-5.69,3.5c-3.7,2.28-8.38,2.29-12.09.02l-5.74-3.52-4.64,10.89h-9l21.16-47.03h8.6l21.23,47.03h-9.14l-4.7-10.89ZM2012.01,567.43l-8.87-20.56-8.8,20.56,1.53,1.25c4.25,3.47,10.36,3.47,14.62,0l1.53-1.25ZM914.17,605.89c-51.81,0-80.92-8.56-93.42-16.95h-13.55c4.24,6.16,12.5,11.38,29.63,15.56,20.7,5.05,48.17,7.84,77.35,7.84s56.65-2.79,77.34-7.84c17.12-4.18,29-9.4,33.23-15.56h-13.19c-12.51,8.39-45.58,16.95-97.39,16.95ZM1085.67,183.48c-9.07-2.43-21.84-4.61-37.96-6.49,12.51-1.58,22.18-12.31,22.18-25.33,0-14.1-11.36-25.54-25.37-25.54s-25.37,11.44-25.37,25.54c0,6.84,2.67,13.05,7.02,17.63l-3.43,5.26c-31.42-2.57-69.05-3.96-108.56-3.96-49.6,0-96.24,2.18-131.34,6.15-17.17,1.94-30.67,4.2-40.16,6.74-11.87,3.17-16.94,6.54-16.94,11.26,0,1.62.6,3.09,1.87,4.44h.01s184.12,251.57,184.12,251.57l-104.23,135.74h13.65l94.31-130.64,95.62,130.64h13.64l-104.92-136.64,180.94-250.66.03-.04c1.25-1.33,1.84-2.79,1.84-4.4,0-4.72-5.06-8.09-16.93-11.26ZM1027.17,138c4.33-4.33,10.49-6.8,17.22-6.11,9.81.99,17.78,8.88,18.92,18.73.76,6.55-1.43,12.6-5.39,16.99-1.52,1.68-4.29.28-3.79-1.95.38-1.67.57-3.43.5-5.23-.34-10.26-8.56-18.79-18.74-19.4-2.32-.15-4.56.11-6.67.7-2.18.61-3.66-2.14-2.05-3.74ZM732.28,194.74c.75-.85,4.31-3.68,20.16-6.93,7.97-1.63,19.06-3.38,34.47-5.03,34.46-3.7,79.66-5.74,127.26-5.74,37.75,0,73.98,1.29,104.54,3.66l-19.18,29.38c-26.08,1.54-55.24,2.36-85.36,2.36-47.6,0-92.8-2.04-127.26-5.74-9.83-1.05-17.89-2.15-24.52-3.23-24.42-3.96-29.23-7.72-30.11-8.73ZM918.05,442.52l-1.94,2.53-1.93-2.53-147.19-231.81c4.87.71,10.16,1.39,15.84,2.03,35.1,3.97,81.74,6.15,131.34,6.15,28.51,0,56.05-.72,80.98-2.09l-21.08,30.38c4.11-.46,6.63-.6,10.53-1.16,4.82-6.66,19.08-24.02,23.41-30,13.51-.9,26.11-2,37.49-3.28,9.2-1.03,17.34-2.17,24.39-3.39l-151.84,233.17ZM1074.75,201.89c-7.88,1.57-18.64,3.23-33.33,4.81-8.83.95-18.38,1.79-28.48,2.51,8.39-11.58,15.32-21.14,19.84-27.3,2.94.28,5.83.57,8.64.87,20.55,2.2,33.42,4.57,41.46,6.62,9.99,2.55,12.55,4.62,13.17,5.33-.76.87-4.47,3.82-21.3,7.15ZM981.48,252.69c-38.05,52.59-81.25,112.02-81.85,110.43l71.42-109.4c-14.77,1.27-30.62,1.97-47.09,1.97-45.61,0-86.34-5.3-113.1-13.6-3.38-1.04-6.54-2.14-9.45-3.28l96.83,164.28h33.15l99.11-159.1c-4.27,1.16-8.85,2.25-13.67,3.25-10.62,2.23-22.51,4.08-35.35,5.46ZM429.63,184.6l-144.66,189.94-144.66-189.94h-22.58v263.2h20.46v-232.63l139.01,181.58h15.52l139.01-181.58v232.63h20.46V184.6h-22.58ZM616.74,221.23c-3.7,0-7.22-.76-10.42-2.14v230.83h20.82v-230.83c-3.19,1.38-6.71,2.14-10.4,2.14ZM616.74,180.19c-8.09,0-14.65,6.56-14.65,14.65s6.56,14.64,14.65,14.64,14.64-6.55,14.64-14.64-6.55-14.65-14.64-14.65ZM1211.6,221.23c-3.7,0-7.22-.76-10.42-2.14v230.83h20.82v-230.83c-3.19,1.38-6.71,2.14-10.4,2.14ZM1211.6,180.19c-8.09,0-14.65,6.56-14.65,14.65s6.56,14.64,14.65,14.64,14.64-6.55,14.64-14.64-6.55-14.65-14.64-14.65ZM1374.19,449.92h16.94v-236.85l218.28,236.85h17.64V184.37h-17.64v237.21l-213.58-237.21h-21.64s0,266.72,0,265.55ZM1967.28,343.4v15.05h39.33v59.6c-23.79,12.73-52.26,20.14-82.85,20.14-100.71,0-147.75-55.03-147.75-122.91s58.19-121.71,149.67-121.71c25.63,0,49.58,5.07,70.46,14.09l-4.27-22.81c-20.25-6.97-42.58-10.8-66.15-10.8-104.28,0-170.61,62.41-170.61,141.13s53.63,142.54,168.41,142.54c30.14,0,58.46-6.41,83.09-17.66,6.1-2.79,16.55-7.66,22.17-11.01l-.55-3.11c-1.74-9.79-2.72-19.7-2.93-29.64l-1.1-52.9h-56.92ZM2037.68,217.46v-8.02c0-13.65,8.85-25.69,19.63-33.02,12.36-8.4,27.4-10.18,40.92-5.27,17.74,6.44,29.48,22.94,29.9,41.75.38,16.59-8.55,32.04-23.08,40.26s-30.84,7.83-45.09-.45c-12.47-7.24-20.77-20.47-22.29-35.24ZM2094.79,251.55c16.77-5.32,28.08-20.96,27.76-38.36-.32-17.15-11.33-32.05-27.71-37.27-12.25-3.9-25.54-1.64-36.06,6.35-9.25,7.02-15.36,18.4-15.55,30.6-.19,12.69,5.54,24.52,15.2,32.07,10.34,8.08,23.78,10.6,36.36,6.61ZM2102.82,237.41l-9.03.1-9.57-18.33h-9.22s-.02,18.33-.02,18.33l-8.28-.04v-47.57s17.93.02,17.93.02c3.31,0,6.44.7,9.29,2.17,3.5,1.8,5.81,4.88,6.43,8.78,1.3,7.31-1.23,13.31-8.39,16.36l10.85,20.16ZM2092.4,203.85c-.68-9.51-11.02-6.94-17.4-7.28v15.91c3.44.02,7.04.19,10.49-.11,4.56-.39,7.23-4.07,6.91-8.52Z"/>
</svg>